<mxfile host="app.diagrams.net" modified="2022-12-01T07:11:46.297Z" agent="5.0 (Windows NT 10.0; Win64; x64) AppleWebKit/537.36 (KHTML, like Gecko) Chrome/107.0.0.0 Safari/537.36 Edg/107.0.1418.62" etag="FDrTWrArZWthtvL8HUoJ" version="20.4.0" type="github">
  <diagram id="6a731a19-8d31-9384-78a2-239565b7b9f0" name="Page-1">
    <mxGraphModel dx="1221" dy="1508" grid="0" gridSize="10" guides="1" tooltips="1" connect="1" arrows="1" fold="1" page="1" pageScale="1" pageWidth="1169" pageHeight="827" background="none" math="0" shadow="0">
      <root>
        <mxCell id="0" />
        <mxCell id="1" parent="0" />
        <mxCell id="rbL4g57tRVtSpH46jvl9-2088" value="" style="rounded=1;whiteSpace=wrap;html=1;" vertex="1" parent="1">
          <mxGeometry x="98" y="-648" width="712" height="55" as="geometry" />
        </mxCell>
        <mxCell id="rbL4g57tRVtSpH46jvl9-2085" value="" style="rounded=1;whiteSpace=wrap;html=1;arcSize=2;" vertex="1" parent="1">
          <mxGeometry x="103" y="-488" width="708" height="485" as="geometry" />
        </mxCell>
        <mxCell id="rbL4g57tRVtSpH46jvl9-2087" value="PC" style="text;html=1;strokeColor=none;fillColor=none;align=center;verticalAlign=middle;whiteSpace=wrap;rounded=0;" vertex="1" parent="1">
          <mxGeometry x="180" y="-637.68" width="135" height="36.25" as="geometry" />
        </mxCell>
        <mxCell id="rbL4g57tRVtSpH46jvl9-2089" value="前端" style="rounded=1;whiteSpace=wrap;html=1;fillColor=#dae8fc;strokeColor=#6c8ebf;" vertex="1" parent="1">
          <mxGeometry x="819" y="-650" width="73" height="55" as="geometry" />
        </mxCell>
        <mxCell id="rbL4g57tRVtSpH46jvl9-2090" value="移动端" style="text;html=1;strokeColor=none;fillColor=none;align=center;verticalAlign=middle;whiteSpace=wrap;rounded=0;" vertex="1" parent="1">
          <mxGeometry x="599" y="-637.68" width="102" height="34.37" as="geometry" />
        </mxCell>
        <mxCell id="rbL4g57tRVtSpH46jvl9-2096" value="" style="line;strokeWidth=2;html=1;perimeter=backbonePerimeter;points=[];outlineConnect=0;rounded=1;dashed=1;rotation=-90;strokeColor=#999999;dashPattern=1 1;" vertex="1" parent="1">
          <mxGeometry x="438.75" y="-627.5" width="36.5" height="10" as="geometry" />
        </mxCell>
        <mxCell id="rbL4g57tRVtSpH46jvl9-2099" value="平台层" style="rounded=1;whiteSpace=wrap;html=1;fillColor=#dae8fc;strokeColor=#6c8ebf;" vertex="1" parent="1">
          <mxGeometry x="825" y="-491" width="70" height="397" as="geometry" />
        </mxCell>
        <mxCell id="rbL4g57tRVtSpH46jvl9-2109" value="" style="rounded=1;whiteSpace=wrap;html=1;strokeColor=#6c8ebf;strokeWidth=2;fillColor=#dae8fc;" vertex="1" parent="1">
          <mxGeometry x="115" y="-479" width="684" height="217" as="geometry" />
        </mxCell>
        <mxCell id="rbL4g57tRVtSpH46jvl9-2110" value="服务引擎" style="text;html=1;strokeColor=none;fillColor=none;align=center;verticalAlign=middle;whiteSpace=wrap;rounded=0;dashed=1;dashPattern=1 1;strokeWidth=2;fontStyle=1" vertex="1" parent="1">
          <mxGeometry x="132" y="-463" width="65" height="33" as="geometry" />
        </mxCell>
        <mxCell id="rbL4g57tRVtSpH46jvl9-2111" value="数据API" style="rounded=0;whiteSpace=wrap;html=1;dashed=1;dashPattern=1 1;strokeColor=#d79b00;strokeWidth=2;fillColor=#ffe6cc;" vertex="1" parent="1">
          <mxGeometry x="236" y="-472" width="116" height="52" as="geometry" />
        </mxCell>
        <mxCell id="rbL4g57tRVtSpH46jvl9-2112" value="决策引擎" style="rounded=0;whiteSpace=wrap;html=1;dashed=1;dashPattern=1 1;strokeColor=#d79b00;strokeWidth=2;fillColor=#ffe6cc;" vertex="1" parent="1">
          <mxGeometry x="379" y="-472" width="116" height="52" as="geometry" />
        </mxCell>
        <mxCell id="rbL4g57tRVtSpH46jvl9-2113" value="报表引擎&lt;span style=&quot;color: rgba(0, 0, 0, 0); font-family: monospace; font-size: 0px; text-align: start;&quot;&gt;%3CmxGraphModel%3E%3Croot%3E%3CmxCell%20id%3D%220%22%2F%3E%3CmxCell%20id%3D%221%22%20parent%3D%220%22%2F%3E%3CmxCell%20id%3D%222%22%20value%3D%22%E5%86%B3%E7%AD%96%E5%BC%95%E6%93%8E%22%20style%3D%22rounded%3D0%3BwhiteSpace%3Dwrap%3Bhtml%3D1%3Bdashed%3D1%3BdashPattern%3D1%201%3BstrokeColor%3D%23d79b00%3BstrokeWidth%3D2%3BfillColor%3D%23ffe6cc%3B%22%20vertex%3D%221%22%20parent%3D%221%22%3E%3CmxGeometry%20x%3D%22341%22%20y%3D%22-472.5%22%20width%3D%22116%22%20height%3D%2252%22%20as%3D%22geometry%22%2F%3E%3C%2FmxCell%3E%3C%2Froot%3E%3C%2FmxGraphModel%3E&lt;/span&gt;" style="rounded=0;whiteSpace=wrap;html=1;dashed=1;dashPattern=1 1;strokeColor=#d79b00;strokeWidth=2;fillColor=#ffe6cc;" vertex="1" parent="1">
          <mxGeometry x="524" y="-472" width="116" height="52" as="geometry" />
        </mxCell>
        <mxCell id="rbL4g57tRVtSpH46jvl9-2114" value="数据收集" style="rounded=0;whiteSpace=wrap;html=1;dashed=1;dashPattern=1 1;strokeColor=#d79b00;strokeWidth=2;fillColor=#ffe6cc;" vertex="1" parent="1">
          <mxGeometry x="666" y="-472.5" width="116" height="52" as="geometry" />
        </mxCell>
        <mxCell id="rbL4g57tRVtSpH46jvl9-2116" value="" style="shape=flexArrow;endArrow=classic;html=1;rounded=0;" edge="1" parent="1">
          <mxGeometry width="50" height="50" relative="1" as="geometry">
            <mxPoint x="425" y="-490" as="sourcePoint" />
            <mxPoint x="425" y="-543" as="targetPoint" />
          </mxGeometry>
        </mxCell>
        <mxCell id="rbL4g57tRVtSpH46jvl9-2117" value="" style="rounded=1;whiteSpace=wrap;html=1;" vertex="1" parent="1">
          <mxGeometry x="98" y="-568" width="712" height="55" as="geometry" />
        </mxCell>
        <mxCell id="rbL4g57tRVtSpH46jvl9-2118" value="智慧交通数字底座一张图" style="text;html=1;strokeColor=none;fillColor=none;align=center;verticalAlign=middle;whiteSpace=wrap;rounded=0;" vertex="1" parent="1">
          <mxGeometry x="145" y="-557.31" width="135" height="36.25" as="geometry" />
        </mxCell>
        <mxCell id="rbL4g57tRVtSpH46jvl9-2119" value="应用端" style="rounded=1;whiteSpace=wrap;html=1;fillColor=#dae8fc;strokeColor=#6c8ebf;" vertex="1" parent="1">
          <mxGeometry x="819" y="-570" width="73" height="55" as="geometry" />
        </mxCell>
        <mxCell id="rbL4g57tRVtSpH46jvl9-2120" value="农村公路管理平台" style="text;html=1;strokeColor=none;fillColor=none;align=center;verticalAlign=middle;whiteSpace=wrap;rounded=0;" vertex="1" parent="1">
          <mxGeometry x="411" y="-557.31" width="102" height="34.37" as="geometry" />
        </mxCell>
        <mxCell id="rbL4g57tRVtSpH46jvl9-2122" value="农村公路管理系统决策平台" style="text;html=1;strokeColor=none;fillColor=none;align=center;verticalAlign=middle;whiteSpace=wrap;rounded=0;" vertex="1" parent="1">
          <mxGeometry x="636" y="-562.78" width="146" height="40.56" as="geometry" />
        </mxCell>
        <mxCell id="rbL4g57tRVtSpH46jvl9-2123" value="" style="line;strokeWidth=2;html=1;perimeter=backbonePerimeter;points=[];outlineConnect=0;rounded=1;dashed=1;rotation=-90;strokeColor=#999999;dashPattern=1 1;" vertex="1" parent="1">
          <mxGeometry x="315.5" y="-542" width="36.5" height="10" as="geometry" />
        </mxCell>
        <mxCell id="rbL4g57tRVtSpH46jvl9-2125" value="" style="line;strokeWidth=2;html=1;perimeter=backbonePerimeter;points=[];outlineConnect=0;rounded=1;dashed=1;rotation=-90;strokeColor=#999999;dashPattern=1 1;" vertex="1" parent="1">
          <mxGeometry x="572" y="-545.12" width="36.5" height="10" as="geometry" />
        </mxCell>
        <mxCell id="rbL4g57tRVtSpH46jvl9-2126" value="" style="rounded=1;whiteSpace=wrap;html=1;strokeColor=#6c8ebf;strokeWidth=2;fillColor=#dae8fc;" vertex="1" parent="1">
          <mxGeometry x="116" y="-218" width="680" height="91" as="geometry" />
        </mxCell>
        <mxCell id="rbL4g57tRVtSpH46jvl9-2127" value="数据层" style="text;html=1;strokeColor=none;fillColor=none;align=center;verticalAlign=middle;whiteSpace=wrap;rounded=0;dashed=1;dashPattern=1 1;strokeWidth=2;fontStyle=1" vertex="1" parent="1">
          <mxGeometry x="132" y="-189" width="65" height="33" as="geometry" />
        </mxCell>
        <mxCell id="rbL4g57tRVtSpH46jvl9-2128" value="持久化数据" style="shape=datastore;whiteSpace=wrap;html=1;rounded=1;strokeColor=#999999;strokeWidth=2;" vertex="1" parent="1">
          <mxGeometry x="269" y="-205" width="90" height="70" as="geometry" />
        </mxCell>
        <mxCell id="rbL4g57tRVtSpH46jvl9-2129" value="缓存数据" style="shape=datastore;whiteSpace=wrap;html=1;rounded=1;strokeColor=#999999;strokeWidth=2;" vertex="1" parent="1">
          <mxGeometry x="466" y="-205" width="90" height="70" as="geometry" />
        </mxCell>
        <mxCell id="rbL4g57tRVtSpH46jvl9-2130" value="三方数据源" style="shape=datastore;whiteSpace=wrap;html=1;rounded=1;strokeColor=#999999;strokeWidth=2;" vertex="1" parent="1">
          <mxGeometry x="689" y="-207.5" width="90" height="70" as="geometry" />
        </mxCell>
        <mxCell id="rbL4g57tRVtSpH46jvl9-2132" value="" style="rounded=1;whiteSpace=wrap;html=1;strokeColor=#6c8ebf;strokeWidth=2;fillColor=#dae8fc;" vertex="1" parent="1">
          <mxGeometry x="120" y="-108" width="684" height="91" as="geometry" />
        </mxCell>
        <mxCell id="rbL4g57tRVtSpH46jvl9-2133" value="基础设施" style="text;html=1;strokeColor=none;fillColor=none;align=center;verticalAlign=middle;whiteSpace=wrap;rounded=0;dashed=1;dashPattern=1 1;strokeWidth=2;fontStyle=1" vertex="1" parent="1">
          <mxGeometry x="141" y="-79" width="65" height="33" as="geometry" />
        </mxCell>
        <mxCell id="rbL4g57tRVtSpH46jvl9-2134" value="&lt;b&gt;物理机&lt;/b&gt;" style="rounded=0;whiteSpace=wrap;html=1;strokeColor=#2D7600;strokeWidth=2;fillColor=#60a917;fontColor=#ffffff;" vertex="1" parent="1">
          <mxGeometry x="249" y="-89" width="120" height="58" as="geometry" />
        </mxCell>
        <mxCell id="rbL4g57tRVtSpH46jvl9-2135" value="&lt;b&gt;K8S&lt;/b&gt;" style="rounded=0;whiteSpace=wrap;html=1;strokeColor=#2D7600;strokeWidth=2;fillColor=#60a917;fontColor=#ffffff;" vertex="1" parent="1">
          <mxGeometry x="452" y="-89" width="120" height="58" as="geometry" />
        </mxCell>
        <mxCell id="rbL4g57tRVtSpH46jvl9-2136" value="&lt;b&gt;Docker&lt;/b&gt;" style="rounded=0;whiteSpace=wrap;html=1;strokeColor=#2D7600;strokeWidth=2;fillColor=#60a917;fontColor=#ffffff;" vertex="1" parent="1">
          <mxGeometry x="643" y="-89" width="120" height="58" as="geometry" />
        </mxCell>
        <mxCell id="rbL4g57tRVtSpH46jvl9-2137" value="数据清理" style="rounded=0;whiteSpace=wrap;html=1;dashed=1;dashPattern=1 1;strokeColor=#d79b00;strokeWidth=2;fillColor=#ffe6cc;" vertex="1" parent="1">
          <mxGeometry x="234" y="-413" width="116" height="52" as="geometry" />
        </mxCell>
        <mxCell id="rbL4g57tRVtSpH46jvl9-2138" value="OLAP工具" style="rounded=0;whiteSpace=wrap;html=1;dashed=1;dashPattern=1 1;strokeColor=#d79b00;strokeWidth=2;fillColor=#ffe6cc;" vertex="1" parent="1">
          <mxGeometry x="379" y="-407" width="116" height="52" as="geometry" />
        </mxCell>
        <mxCell id="rbL4g57tRVtSpH46jvl9-2139" value="权限服务" style="rounded=0;whiteSpace=wrap;html=1;dashed=1;dashPattern=1 1;strokeColor=#d79b00;strokeWidth=2;fillColor=#ffe6cc;" vertex="1" parent="1">
          <mxGeometry x="524" y="-405" width="116" height="52" as="geometry" />
        </mxCell>
        <mxCell id="rbL4g57tRVtSpH46jvl9-2140" value="消息服务" style="rounded=0;whiteSpace=wrap;html=1;dashed=1;dashPattern=1 1;strokeColor=#d79b00;strokeWidth=2;fillColor=#ffe6cc;" vertex="1" parent="1">
          <mxGeometry x="666" y="-405" width="116" height="52" as="geometry" />
        </mxCell>
      </root>
    </mxGraphModel>
  </diagram>
</mxfile>
